<?xml version="1.0" encoding="UTF-8"?>
<svg version="1.1" xmlns="http://www.w3.org/2000/svg" width="3000" height="3000">
<path d="M0 0 C0.33 0 0.66 0 1 0 C1.03426172 88.73043636 1.06606303 177.46087352 1.08468628 266.1913147 C1.08496239 267.50350423 1.08523851 268.81569377 1.08552299 270.16764663 C1.09136236 297.9872601 1.09680146 325.80687363 1.10175936 353.62648728 C1.1042502 367.60058771 1.10682015 381.57468812 1.10946488 395.54878852 C1.10986338 397.65676763 1.11025962 399.76474674 1.11065576 401.87272585 C1.11677786 434.34396434 1.12459949 466.81520135 1.1373291 499.28643799 C1.1376029 499.98493557 1.1378767 500.68343315 1.13815879 501.40309733 C1.1425837 512.6654015 1.14715085 523.92770561 1.15173688 535.19000971 C1.16493915 567.61728157 1.17709468 600.04455228 1.18227959 632.47182655 C1.18244019 633.47146729 1.18244019 633.47146729 1.18260404 634.49130279 C1.18483056 648.46202831 1.18660564 662.43275384 1.18782998 676.40347948 C1.18840633 682.94525205 1.18905761 689.4870246 1.18975449 696.02879715 C1.18988933 697.3163754 1.19002418 698.60395365 1.19016311 699.93054943 C1.19253116 720.69891126 1.20181967 741.46726457 1.21366407 762.23562291 C1.22541068 783.08944133 1.22994298 803.94325126 1.22700275 824.79707287 C1.2254758 837.20311177 1.22958851 849.60911971 1.24159509 862.01515304 C1.24905744 870.28722098 1.2493539 878.55926849 1.24366363 886.8313378 C1.24062461 891.55434406 1.24085253 896.27729152 1.24976636 901.00029163 C1.25779816 905.28820979 1.25680012 909.57602269 1.24827995 913.86393903 C1.2468394 915.41389748 1.24882598 916.96386343 1.25447049 918.51381227 C1.26160365 920.60334115 1.25662597 922.69248757 1.24839699 924.78200376 C1.24870895 925.94343549 1.24902092 927.10486722 1.24934233 928.30149385 C1 931 1 931 -1 933 C-1.99 933 -2.98 933 -4 933 C-4 933.66 -4 934.32 -4 935 C-5.65 935.33 -7.3 935.66 -9 936 C-9 936.66 -9 937.32 -9 938 C-10.03833984 938.51046875 -10.03833984 938.51046875 -11.09765625 939.03125 C-27.83241643 947.32146058 -44.30488825 956.23397304 -60.375 965.75 C-67.95567814 970.20364841 -75.59081666 974.35817691 -84 977 C-84 977.66 -84 978.32 -84 979 C-85.134375 979.28875 -86.26875 979.5775 -87.4375 979.875 C-88.613125 980.24625 -89.78875 980.6175 -91 981 C-91.33 981.66 -91.66 982.32 -92 983 C-93.90515483 984.11946307 -95.85071544 985.17053695 -97.8125 986.1875 C-102.31240873 988.54936146 -106.74593345 990.97982641 -111.125 993.5625 C-118.61912501 997.97372438 -126.22280373 1002.11140186 -134 1006 C-138.78785644 1008.5842405 -143.50610614 1011.28928827 -148.22119141 1014.00341797 C-153.07203378 1016.79352062 -157.91998272 1019.51454484 -162.9609375 1021.94921875 C-165.62185005 1023.32045529 -168.17535261 1024.84817422 -170.75 1026.375 C-175.76193427 1029.33544984 -180.86754441 1031.96195332 -186.09765625 1034.51171875 C-189.84801584 1036.43485065 -193.39382074 1038.62658471 -196.94140625 1040.8984375 C-199 1042 -199 1042 -202 1042 C-202 1042.66 -202 1043.32 -202 1044 C-202.87140625 1044.42410156 -203.7428125 1044.84820313 -204.640625 1045.28515625 C-211.62254433 1048.71294899 -218.38858701 1052.33549888 -225.07421875 1056.3203125 C-227.97940069 1057.98817396 -230.92387706 1059.47611011 -233.9375 1060.9375 C-239.49354683 1063.65378956 -244.66407847 1066.83165904 -249.8984375 1070.1171875 C-253.40980093 1072.24877084 -256.99584916 1074.08149431 -260.69140625 1075.8671875 C-263.66328572 1077.32547015 -266.53036523 1078.94242936 -269.4140625 1080.56640625 C-272.60779027 1082.33694717 -275.83523643 1084.04174166 -279.0625 1085.75 C-289.3394947 1091.20575276 -299.47316235 1096.90990878 -309.5 1102.8125 C-313.92120998 1105.41003585 -318.3990734 1107.73989571 -323 1110 C-323.928125 1110.5775 -324.85625 1111.155 -325.8125 1111.75 C-328 1113 -328 1113 -331 1113 C-331.33 1113.66 -331.66 1114.32 -332 1115 C-333.94731044 1116.13960249 -335.93414076 1117.21208693 -337.9375 1118.25 C-342.17641521 1120.47196961 -346.34993869 1122.75758457 -350.4375 1125.25 C-359.90808824 1131 -359.90808824 1131 -364 1131 C-364 1131.66 -364 1132.32 -364 1133 C-365.093125 1133.53625 -366.18625 1134.0725 -367.3125 1134.625 C-371.60270372 1136.77010186 -375.80765171 1139.05482397 -380.01171875 1141.36328125 C-383.16628045 1143.09107387 -386.3317329 1144.79747925 -389.5 1146.5 C-390.58925781 1147.08652344 -391.67851563 1147.67304688 -392.80078125 1148.27734375 C-394.83917517 1149.37494048 -396.87817359 1150.47141581 -398.91796875 1151.56640625 C-403.32473662 1153.94693106 -407.66707618 1156.3819854 -411.9375 1159 C-415.32705467 1161.05907527 -418.74372914 1162.89621865 -422.3125 1164.625 C-428.09379587 1167.45984392 -433.66777475 1170.60508329 -439.25 1173.8125 C-440.15000732 1174.32925293 -441.05001465 1174.84600586 -441.97729492 1175.37841797 C-445.47522409 1177.38989219 -448.97112772 1179.40482002 -452.46386719 1181.42529297 C-454.68101941 1182.70591343 -456.90249287 1183.97870317 -459.125 1185.25 C-459.78145508 1185.63260986 -460.43791016 1186.01521973 -461.11425781 1186.40942383 C-463.96529746 1188.03451643 -465.65983468 1189 -469 1189 C-469.33 1189.66 -469.66 1190.32 -470 1191 C-472.16888384 1192.254403 -474.33427807 1193.42264131 -476.5625 1194.5625 C-477.9357133 1195.27968696 -479.30808188 1195.99849317 -480.6796875 1196.71875 C-481.3922168 1197.09257812 -482.10474609 1197.46640625 -482.83886719 1197.8515625 C-486.31902428 1199.70093654 -489.75530436 1201.62590031 -493.1875 1203.5625 C-493.85467041 1203.93858398 -494.52184082 1204.31466797 -495.20922852 1204.70214844 C-499.32943606 1207.03344487 -503.42028002 1209.41085352 -507.5 1211.8125 C-511.31290938 1214.04871983 -515.13748745 1216.16659958 -519.1171875 1218.08984375 C-521.88431153 1219.42747839 -524.60688367 1220.85217083 -527.3359375 1222.265625 C-529 1223 -529 1223 -531 1223 C-531 1223.66 -531 1224.32 -531 1225 C-532.12535156 1225.54527344 -532.12535156 1225.54527344 -533.2734375 1226.1015625 C-538.36613815 1228.60301496 -543.3573444 1231.14323465 -548.1875 1234.125 C-559.38651316 1241 -559.38651316 1241 -564 1241 C-564 1241.66 -564 1242.32 -564 1243 C-564.763125 1243.37125 -565.52625 1243.7425 -566.3125 1244.125 C-570.24594235 1246.09172118 -574.09042856 1248.21654616 -577.9453125 1250.33203125 C-581.09889434 1252.05399985 -584.26745921 1253.74605138 -587.4375 1255.4375 C-592.84753481 1258.34264996 -598.1596996 1261.38777303 -603.44140625 1264.51953125 C-609.45646438 1268 -609.45646438 1268 -613 1268 C-613.33 1268.66 -613.66 1269.32 -614 1270 C-615.5864374 1270.96589716 -617.21454082 1271.86385661 -618.859375 1272.7265625 C-622.79439842 1274.8210924 -626.70416805 1276.94277695 -630.578125 1279.1484375 C-631.50310791 1279.67445557 -632.42809082 1280.20047363 -633.38110352 1280.74243164 C-634.32783936 1281.2811792 -635.2745752 1281.81992676 -636.25 1282.375 C-643.80309684 1286.6583684 -651.38362387 1290.85646383 -659.0625 1294.91015625 C-670.3900009 1300.89882712 -681.65609638 1307.02581426 -692.75 1313.4375 C-707.62265136 1322 -707.62265136 1322 -711 1322 C-711 1322.66 -711 1323.32 -711 1324 C-712.134375 1324.28875 -713.26875 1324.5775 -714.4375 1324.875 C-715.613125 1325.24625 -716.78875 1325.6175 -718 1326 C-718.33 1326.66 -718.66 1327.32 -719 1328 C-720.92476556 1329.14190984 -722.89131545 1330.21381654 -724.875 1331.25 C-726.05624428 1331.87060921 -727.23722929 1332.49171214 -728.41796875 1333.11328125 C-729.01528809 1333.42604004 -729.61260742 1333.73879883 -730.22802734 1334.06103516 C-733.80436147 1335.95612761 -737.32537771 1337.95405514 -740.85546875 1339.93359375 C-743 1341 -743 1341 -745 1341 C-745.22251238 1288.01038057 -745.42948382 1235.02072061 -745.55046082 1182.03076172 C-745.55225556 1181.24664236 -745.5540503 1180.46252301 -745.55589943 1179.65464246 C-745.59480616 1162.61410012 -745.63081868 1145.57355281 -745.66384928 1128.53299809 C-745.68006483 1120.17645726 -745.69692 1111.81991778 -745.71411133 1103.46337891 C-745.71666113 1102.21600694 -745.71666113 1102.21600694 -745.71926244 1100.94343555 C-745.77467183 1073.98365647 -745.87232719 1047.02423132 -745.99186387 1020.0646667 C-746.11446846 992.36290541 -746.19450614 964.66134003 -746.22089487 936.959312 C-746.22464095 933.04767275 -746.22887423 929.13603417 -746.23340416 925.22439575 C-746.23428066 924.45452032 -746.23515716 923.68464488 -746.23606022 922.89143989 C-746.25142984 910.49248111 -746.31174283 898.09412764 -746.38881644 885.69541583 C-746.46532262 873.23396496 -746.49459143 860.77311485 -746.47551791 848.31143731 C-746.46649276 841.55748105 -746.48018387 834.80540904 -746.54967117 828.05174828 C-746.61279897 821.87120308 -746.61622729 815.69363626 -746.57168563 809.51295578 C-746.56617881 807.27454503 -746.58279588 805.03595069 -746.62348137 802.79790294 C-746.90280158 786.48759942 -746.90280158 786.48759942 -743.73529504 782.34660673 C-740.25792684 779.25455903 -736.33212899 777.64981122 -732 776 C-730.2151343 775.04665195 -728.44114861 774.07212102 -726.6875 773.0625 C-725.80449219 772.58941406 -724.92148438 772.11632813 -724.01171875 771.62890625 C-720.31580514 769.62994908 -716.6583421 767.56668135 -713 765.5 C-704.95482803 760.9635732 -696.86761631 756.51852806 -688.70703125 752.19238281 C-688.08183594 751.86077148 -687.45664063 751.52916016 -686.8125 751.1875 C-686.18730469 750.85588867 -685.56210938 750.52427734 -684.91796875 750.18261719 C-679.37903095 747.23057681 -673.9073998 744.16486873 -668.4543457 741.05737305 C-657.79111702 735 -657.79111702 735 -655 735 C-655 734.34 -655 733.68 -655 733 C-654.40058594 732.71769531 -653.80117187 732.43539062 -653.18359375 732.14453125 C-642.89780652 727.15526604 -633.0322279 721.4273219 -623.10498047 715.76855469 C-617.99234789 712.85646864 -612.87129964 709.95930747 -607.75 707.0625 C-606.83500732 706.54357178 -605.92001465 706.02464355 -604.97729492 705.48999023 C-596.49492986 700.68828709 -587.95511899 696.00734373 -579.3125 691.5 C-571.31237907 687.28116947 -563.52872355 682.6931719 -555.73950195 678.09960938 C-550.05626768 674.75370127 -544.33306921 671.5122122 -538.53173828 668.37548828 C-535.65178083 666.81081323 -532.80112959 665.19940661 -529.95336914 663.57714844 C-523.60441075 659.96041449 -517.2047504 656.53943226 -510.64453125 653.31640625 C-506.68451565 651.34517249 -502.8462848 649.18286877 -499 647 C-496.52124062 645.60343748 -494.04208927 644.20758719 -491.5625 642.8125 C-490.88453369 642.43077637 -490.20656738 642.04905273 -489.50805664 641.65576172 C-479.49746105 636.02313636 -469.47055795 630.41664839 -459.375 624.9375 C-454.35234879 622.20829683 -449.37276955 619.40560425 -444.39404297 616.59741211 C-439.27388681 613.71125525 -434.14015645 610.85036504 -429 608 C-411.97713684 598.56043616 -411.97713684 598.56043616 -395.13671875 588.80078125 C-387.6160394 584.48318078 -379.94562564 580.42730888 -372.31469727 576.30883789 C-362.59915231 571.06195377 -352.92606496 565.75358463 -343.31933594 560.31054688 C-338.28282094 557.46465082 -333.23430831 554.64008674 -328.1875 551.8125 C-327.14924072 551.22992432 -326.11098145 550.64734863 -325.04125977 550.04711914 C-322.03018804 548.35989102 -319.01557873 546.67915709 -316 545 C-314.96439941 544.41911621 -313.92879883 543.83823242 -312.86181641 543.23974609 C-311.8722998 542.69012207 -310.8827832 542.14049805 -309.86328125 541.57421875 C-308.5316394 540.8311145 -308.5316394 540.8311145 -307.1730957 540.07299805 C-305 539 -305 539 -303 539 C-303 605.99 -303 672.98 -303 742 C-306.96 743.98 -310.92 745.96 -315 748 C-318.62208597 749.99595034 -322.22395474 752.00880293 -325.8125 754.0625 C-327.26825439 754.88862793 -327.26825439 754.88862793 -328.75341797 755.73144531 C-333.98778005 758.70304943 -339.20991789 761.69528103 -344.42578125 764.69921875 C-345.46436279 765.29404053 -346.50294434 765.8888623 -347.57299805 766.50170898 C-349.56879266 767.64496834 -351.56129881 768.79399265 -353.55004883 769.94946289 C-354.45392334 770.46629639 -355.35779785 770.98312988 -356.2890625 771.515625 C-357.47556396 772.20060059 -357.47556396 772.20060059 -358.68603516 772.89941406 C-361.12691372 774.06036369 -363.33814643 774.58395647 -366 775 C-366 775.66 -366 776.32 -366 777 C-366.91136719 777.43828125 -367.82273437 777.8765625 -368.76171875 778.328125 C-380.47837779 784.03635936 -391.72895282 790.46544749 -403 797 C-413.42254792 803.03556252 -423.7921246 809.0205401 -434.62109375 814.30078125 C-440.51284686 817.26368599 -446.21523631 820.56122174 -451.94140625 823.82958984 C-454.02894104 825.01645438 -456.12260104 826.19170446 -458.21875 827.36328125 C-463.98406031 830.58641808 -469.73761618 833.80591082 -475.375 837.25 C-478.38336192 839.0809281 -481.41043681 840.7358853 -484.578125 842.2734375 C-490.29424582 845.1067277 -495.83357453 848.21646144 -501.375 851.375 C-502.38723633 851.94935791 -503.39947266 852.52371582 -504.44238281 853.11547852 C-510.46419094 856.53775328 -516.45768661 860.00338587 -522.4296875 863.51171875 C-527.76882706 866.60322661 -533.16918524 869.59893104 -538.69921875 872.3359375 C-543.16470027 874.58717434 -547.54864164 876.97846002 -551.9375 879.375 C-552.88955322 879.89449219 -553.84160645 880.41398437 -554.82250977 880.94921875 C-563.94866907 885.94487254 -573.01055542 891.05201781 -582.05859375 896.1875 C-583.33259033 896.90873047 -583.33259033 896.90873047 -584.63232422 897.64453125 C-586.13166151 898.50288562 -587.62393113 899.37380896 -589.10595703 900.26171875 C-593.69738213 903 -593.69738213 903 -597 903 C-597 959.1 -597 1015.2 -597 1073 C-588.20510423 1068.30938892 -579.4610563 1063.62585374 -570.8125 1058.6875 C-560.26135061 1052.69348572 -549.65027448 1046.81573329 -539 1041 C-538.13850342 1040.52908936 -537.27700684 1040.05817871 -536.3894043 1039.57299805 C-530.70468043 1036.46822914 -525.00989268 1033.38262641 -519.30981445 1030.30615234 C-502.05517765 1021.18408278 -502.05517765 1021.18408278 -485.26171875 1011.2578125 C-483 1010 -483 1010 -480 1010 C-480 1009.34 -480 1008.68 -480 1008 C-479.030625 1007.52691406 -478.06125 1007.05382813 -477.0625 1006.56640625 C-462.92054779 999.61219528 -449.34397693 991.78870957 -435.7199707 983.88012695 C-428.68041124 979.80004694 -421.57689672 975.86948817 -414.3671875 972.09765625 C-406.22352563 967.82933609 -398.17529242 963.42913533 -390.1875 958.875 C-381.38574055 953.85913556 -372.50286562 949.01255483 -363.5625 944.25 C-351.9854135 938.07935167 -340.50264263 931.79254982 -329.16796875 925.1875 C-328.33015869 924.69991211 -327.49234863 924.21232422 -326.62915039 923.70996094 C-325.02351824 922.77385094 -323.41967032 921.83466988 -321.81811523 920.89160156 C-317.97250051 918.64446273 -314.1055118 916.52323943 -310.109375 914.5546875 C-304.65893484 911.86893286 -299.39756763 908.89185807 -294.125 905.875 C-292.11239435 904.73234133 -290.09936465 903.59042926 -288.0859375 902.44921875 C-287.07756836 901.8773584 -286.06919922 901.30549805 -285.03027344 900.71630859 C-280.27847716 898.02495121 -275.52073802 895.34514329 -270.75 892.6875 C-269.91098145 892.2136084 -269.07196289 891.7397168 -268.20751953 891.25146484 C-267.43263184 890.82172363 -266.65774414 890.39198242 -265.859375 889.94921875 C-264.84568848 889.38207153 -264.84568848 889.38207153 -263.81152344 888.8034668 C-262 888 -262 888 -259 888 C-259 887.34 -259 886.68 -259 886 C-258.40058594 885.71769531 -257.80117187 885.43539062 -257.18359375 885.14453125 C-248.80885534 881.08224704 -240.75544967 876.51229996 -232.6706543 871.90625 C-225.76316172 867.97685496 -218.80571325 864.17406736 -211.765625 860.48828125 C-208.90636009 859.00558809 -208.90636009 859.00558809 -206 857 C-205.01 857 -204.02 857 -203 857 C-203 856.34 -203 855.68 -203 855 C-202.030625 854.52691406 -201.06125 854.05382813 -200.0625 853.56640625 C-187.39216368 847.33493638 -175.13043644 840.52744894 -163.05078125 833.21875 C-155.95192308 829 -155.95192308 829 -152 829 C-152.14132195 785.48825705 -152.28445331 741.97652017 -152.4290989 698.46478814 C-152.43747123 695.94615361 -152.44584055 693.42751907 -152.4542098 690.90888453 C-152.72520399 609.37366442 -153.00612794 527.83850003 -153.55413705 391.97022277 C-153.56253289 389.92950635 -153.57092495 387.88878992 -153.57931662 385.84807348 C-153.71757419 352.23204072 -153.85762507 318.61601558 -154 285 C-154.54647942 285.34322926 -155.09295883 285.68645851 -155.65599823 286.04008865 C-156.37437111 286.49037807 -157.09274399 286.9406675 -157.83288574 287.40460205 C-158.54436516 287.85095631 -159.25584457 288.29731056 -159.98888397 288.7571907 C-162.29680526 290.18341673 -164.64308817 291.50980021 -167.03125 292.796875 C-167.91530518 293.27560059 -168.79936035 293.75432617 -169.71020508 294.24755859 C-170.6308374 294.74336426 -171.55146973 295.23916992 -172.5 295.75 C-180.94424542 300.32725453 -189.3403263 304.9768557 -197.70117188 309.70410156 C-202.48118817 312.39869869 -207.27329815 315.07177522 -212.0625 317.75 C-219.3303324 321.81507737 -226.58891098 325.89550169 -233.83178711 330.00488281 C-242.18293749 334.74269883 -250.56050384 339.42122862 -259 344 C-273.62467494 351.9350426 -288.11595391 360.10772906 -302.46484375 368.53125 C-307.97337914 371.72263568 -313.58412271 374.72601367 -319.21484375 377.6953125 C-329.91162128 383.34510218 -340.43064817 389.29154986 -350.94775391 395.26806641 C-354.01841019 397.01044648 -357.092531 398.74654387 -360.16796875 400.48046875 C-373.25568451 407.84100865 -373.25568451 407.84100865 -386.20703125 415.4375 C-388.66963712 416.81518161 -391.14976307 418.07668979 -393.6796875 419.32421875 C-399.00390406 421.96540818 -404.15698349 424.85838627 -409.3125 427.8125 C-418.45584088 433.02028162 -427.65073845 438.12527025 -436.875 443.1875 C-445.51484697 447.9296632 -454.12470932 452.70497384 -462.55224609 457.8190918 C-465.90126729 459.83690244 -469.28912861 461.66877342 -472.796875 463.3984375 C-478.16893346 466.04863946 -483.36352264 468.96489102 -488.5625 471.9375 C-490.5778199 473.08386987 -492.59345678 474.22968262 -494.609375 475.375 C-495.65029297 475.96667969 -496.69121094 476.55835938 -497.76367188 477.16796875 C-504.29033135 480.86260157 -510.84447194 484.508562 -517.39868164 488.15405273 C-522.01523337 490.7305471 -526.59334838 493.34186094 -531.10546875 496.09765625 C-535.13711558 498.54085989 -539.25749141 500.66850256 -543.48974609 502.73974609 C-547.85651202 504.93204776 -552.07406553 507.38387478 -556.3125 509.8125 C-564.83377196 514.66596921 -573.39621097 519.43641152 -581.99282837 524.15444946 C-591.9417386 529.61501793 -601.81670423 535.16830065 -611.5703125 540.97265625 C-617.51656906 544.48758467 -623.59054657 547.74218121 -629.7109375 550.94140625 C-637.74769273 555.15076865 -645.69277775 559.48484334 -653.5625 564 C-654.44325195 564.50515137 -655.32400391 565.01030273 -656.23144531 565.53076172 C-659.6373721 567.48699603 -663.04174171 569.44585424 -666.44189453 571.41210938 C-668.66641711 572.69703886 -670.8952221 573.9742192 -673.125 575.25 C-673.78185791 575.63285156 -674.43871582 576.01570313 -675.11547852 576.41015625 C-677.96613498 578.03497338 -679.66031892 579 -683 579 C-683 579.66 -683 580.32 -683 581 C-683.60078369 581.29277832 -684.20156738 581.58555664 -684.82055664 581.88720703 C-691.15417844 585.00904438 -697.31002367 588.3685314 -703.4375 591.875 C-705.43968484 593.01245717 -707.44230913 594.14914109 -709.4453125 595.28515625 C-710.49750977 595.88215332 -711.54970703 596.47915039 -712.63378906 597.09423828 C-718.07814148 600.17652832 -723.53061648 603.24399208 -728.9927063 606.29473877 C-730.20362421 606.97197229 -731.41365168 607.65080047 -732.62277222 608.33123779 C-734.31527512 609.28342957 -736.0110805 610.22974409 -737.70703125 611.17578125 C-738.6813208 611.72145752 -739.65561035 612.26713379 -740.65942383 612.8293457 C-743 614 -743 614 -745 614 C-745.18678474 588.66165962 -745.32790788 563.32342223 -745.41449738 537.98453236 C-745.45576904 526.21951615 -745.51204788 514.4549274 -745.60351562 502.69018555 C-745.68319031 492.43741043 -745.73485081 482.18494482 -745.75270796 471.93186873 C-745.76314848 466.50147454 -745.78772625 461.07196591 -745.84584045 455.64185524 C-745.900083 450.53217983 -745.91690478 445.42375586 -745.90486145 440.31381989 C-745.90706504 438.43722167 -745.9230155 436.56058226 -745.9536438 434.68423271 C-746.17360042 420.51602772 -746.17360042 420.51602772 -743.26341248 416.75671959 C-740.06175626 414.63851466 -737.83674305 414 -734 414 C-734 413.34 -734 412.68 -734 412 C-731.22958742 410.45757635 -728.4586451 408.91610718 -725.6875 407.375 C-724.86314453 406.91641602 -724.03878906 406.45783203 -723.18945312 405.98535156 C-718.80568345 403.54935093 -714.41349146 401.13188428 -710 398.75 C-705.65157738 396.40185178 -701.456571 393.85443738 -697.2890625 391.19921875 C-694.84775154 389.92023844 -692.71376849 389.40754474 -690 389 C-690 388.34 -690 387.68 -690 387 C-689.23300781 386.63390625 -688.46601562 386.2678125 -687.67578125 385.890625 C-677.48813875 380.92104329 -667.70768888 375.32830635 -657.89404297 369.66308594 C-652.82022667 366.74737507 -647.72203213 363.87487162 -642.625 361 C-640.74212046 359.93761881 -638.85930435 358.87512518 -636.9765625 357.8125 C-635.69313965 357.09126953 -635.69313965 357.09126953 -634.38378906 356.35546875 C-632.87682013 355.49857695 -631.37755655 354.62785889 -629.88964844 353.73828125 C-625.29942434 351 -625.29942434 351 -622 351 C-622 350.34 -622 349.68 -622 349 C-620.329375 348.195625 -620.329375 348.195625 -618.625 347.375 C-614.3741967 345.26847403 -610.39158203 342.82015332 -606.39453125 340.26953125 C-603.90279412 338.94846344 -601.77694972 338.40939046 -599 338 C-599 337.34 -599 336.68 -599 336 C-598.40058594 335.71769531 -597.80117187 335.43539063 -597.18359375 335.14453125 C-586.90357962 330.15806636 -577.04402647 324.43325751 -567.12255859 318.77734375 C-561.92251313 315.81750552 -556.71062938 312.87865193 -551.5 309.9375 C-549.6352751 308.88436521 -547.77068369 307.830994 -545.90625 306.77734375 C-544.64167969 306.06553955 -544.64167969 306.06553955 -543.3515625 305.33935547 C-541.85845776 304.48894303 -540.37298694 303.62487021 -538.8984375 302.74267578 C-534.30045758 300 -534.30045758 300 -531 300 C-531 299.34 -531 298.68 -531 298 C-528.11048311 296.3428892 -525.21239261 294.70137532 -522.3125 293.0625 C-521.49587891 292.59392578 -520.67925781 292.12535156 -519.83789062 291.64257812 C-519.04189453 291.19462891 -518.24589844 290.74667969 -517.42578125 290.28515625 C-516.33390503 289.66459351 -516.33390503 289.66459351 -515.2199707 289.03149414 C-512.82133116 287.91698275 -510.60366372 287.41826727 -508 287 C-508 286.34 -508 285.68 -508 285 C-507.40058594 284.71769531 -506.80117187 284.43539063 -506.18359375 284.14453125 C-495.92107118 279.16655089 -486.08592417 273.44239907 -476.17773438 267.80273438 C-470.8186653 264.76252494 -465.44044456 261.75665418 -460.0625 258.75 C-457.94917646 257.56778393 -455.83589397 256.38549447 -453.72265625 255.203125 C-452.73539551 254.65076172 -451.74813477 254.09839844 -450.73095703 253.52929688 C-447.15109565 251.5246257 -443.57489201 249.51351582 -440 247.5 C-432.08469942 243.04228559 -424.15719087 238.60641352 -416.22998047 234.16992188 C-410.85266289 231.15986867 -405.47770599 228.14581494 -400.10986328 225.11889648 C-397.0755746 223.40842354 -394.03809596 221.7037029 -391 220 C-389.8965625 219.37996094 -388.793125 218.75992187 -387.65625 218.12109375 C-386.6559375 217.56550781 -385.655625 217.00992187 -384.625 216.4375 C-383.77164062 215.96183594 -382.91828125 215.48617188 -382.0390625 214.99609375 C-380 214 -380 214 -378 214 C-378 213.34 -378 212.68 -378 212 C-377.35933594 211.68546875 -376.71867187 211.3709375 -376.05859375 211.046875 C-366.52606438 206.3303329 -357.33073286 201.07245651 -348.3828125 195.31640625 C-346 194 -346 194 -343 194 C-343 193.34 -343 192.68 -343 192 C-342.42894531 191.7097998 -341.85789062 191.41959961 -341.26953125 191.12060547 C-327.82224765 184.26067363 -314.68877768 177.0050807 -301.6875 169.3359375 C-292.14411707 163.71215827 -282.43097024 158.3925636 -272.6875 153.125 C-266.35486393 149.68868585 -260.11821649 146.08206378 -253.8737793 142.48876953 C-247.62969193 138.90307928 -241.33277157 135.42637228 -235 132 C-217.960165 122.77035699 -201.0928739 113.2818859 -184.33374023 103.55224609 C-175.90218329 98.65790771 -167.43863035 93.86594491 -158.8125 89.3203125 C-148.09454499 83.66344686 -137.55767792 77.70175661 -127.02148438 71.71435547 C-124.04321441 70.02451936 -121.06142053 68.34110193 -118.078125 66.66015625 C-108.93964859 61.51004392 -99.818634 56.33479306 -90.75 51.0625 C-64.82966948 36 -64.82966948 36 -61 36 C-61 35.34 -61 34.68 -61 34 C-60.40058594 33.71769531 -59.80117187 33.43539063 -59.18359375 33.14453125 C-50.01481946 28.69708881 -41.20763122 23.64926622 -32.35546875 18.609375 C-27.91072871 16.07908834 -23.45472959 13.56985068 -18.98828125 11.078125 C-17.84254639 10.43875 -16.69681152 9.799375 -15.51635742 9.140625 C-13.28146808 7.8947116 -11.04596789 6.64989318 -8.80981445 5.40625 C-7.29907349 4.56320312 -7.29907349 4.56320312 -5.7578125 3.703125 C-4.8620752 3.20458008 -3.96633789 2.70603516 -3.04345703 2.19238281 C-1.07524549 1.16003349 -1.07524549 1.16003349 0 0 Z " fill="#215563" transform="translate(2251,1038)"/>
<path d="M0 0 C16 8 16 8 21 11 C22.72374873 11.97347014 24.45186561 12.93923396 26.18359375 13.8984375 C27.18302002 14.45402344 28.18244629 15.00960938 29.2121582 15.58203125 C30.80870239 16.46955078 30.80870239 16.46955078 32.4375 17.375 C40.97106876 22.12923 49.42756677 26.98846687 57.8125 32 C64.30881445 35.88157232 70.78727517 39.54069109 77.61328125 42.8125 C80.52638409 44.26189978 83.21675597 45.95254743 85.9453125 47.71875 C89.21231526 49.75596845 92.60572089 51.5529981 95.99609375 53.375 C103.51215312 57.44090468 110.94211587 61.65965622 118.375 65.875 C127.2460177 70.89926095 136.14556733 75.87038554 145.0625 80.8125 C153.12044197 85.27853105 161.15705325 89.77358912 169.140625 94.37109375 C171.99068024 95.9946908 174.86397207 97.56638547 177.75 99.125 C181.99666453 101.41931803 186.12768823 103.85542936 190.22265625 106.41015625 C192.6575109 107.80394787 195.10296044 109.04803585 197.62109375 110.28125 C203.24579511 113.06739463 208.60891013 116.22810832 214 119.4375 C223.84525868 125.24564482 233.81890102 130.7630988 243.91796875 136.11694336 C250.0410883 139.37009438 256.06480142 142.74847191 262.04003906 146.26586914 C266.82643715 149.0700415 271.66498443 151.78081679 276.5 154.5 C283.4452658 158.41382349 290.36590857 162.35859738 297.23730469 166.40063477 C299.86709869 167.92306146 302.51729094 169.39358445 305.1875 170.84375 C306.14881836 171.36638428 307.11013672 171.88901855 308.10058594 172.42749023 C310.75973255 173.86968991 313.41891972 175.31181476 316.078125 176.75390625 C334.79077686 186.90685958 353.32152526 197.35691752 371.66943359 208.15576172 C379.943139 213.01378302 388.33329078 217.62950342 396.84033203 222.06542969 C407.36863718 227.5624379 417.68491224 233.42374604 428.00634766 239.29736328 C432.93733124 242.10185517 437.87461825 244.8951766 442.8125 247.6875 C444.24770996 248.49973022 444.24770996 248.49973022 445.71191406 249.32836914 C452.30722456 253.05647304 458.9289049 256.73443067 465.56225586 260.39428711 C470.72243348 263.2550807 475.80584526 266.23137893 480.875 269.25 C486.63774938 272.68093227 492.43153209 275.84937607 498.484375 278.74609375 C501.08152843 280.04063762 503.5133713 281.50465632 506 283 C507.73560622 283.98490627 509.47543602 284.96239568 511.21875 285.93359375 C512.22341309 286.49433594 513.22807617 287.05507812 514.26318359 287.6328125 C515.86540771 288.52613281 515.86540771 288.52613281 517.5 289.4375 C525.81648603 294.08241685 534.11221421 298.76020673 542.375 303.5 C548.19267753 306.83670367 554.02472327 310.12826736 559.9296875 313.30859375 C565.42626751 316.33660793 570.86035129 319.47549888 576.30273438 322.59960938 C581.09293831 325.34761717 585.89807351 328.06359636 590.72998047 330.73754883 C593.99617276 332.55401262 597.24401925 334.40235524 600.49389648 336.24780273 C608.00734194 340.51334193 615.53164076 344.75661861 623.10546875 348.9140625 C623.7057489 349.24357407 624.30602905 349.57308563 624.92449951 349.9125824 C626.14724715 350.58357235 627.37002561 351.25450614 628.59283447 351.92538452 C639.44775564 357.88117085 650.19744365 363.98099146 660.86889648 370.26220703 C667.33740542 374.06009952 673.86827015 377.67173831 680.51171875 381.15234375 C684.99558621 383.52733738 689.40983486 386.01590786 693.82592773 388.51391602 C698.72436123 391.28453916 703.63907392 394.0240631 708.5625 396.75 C715.83118987 400.7794874 723.07625517 404.85005037 730.3125 408.9375 C731.29742432 409.4934082 732.28234863 410.04931641 733.29711914 410.62207031 C734.22645264 411.14768555 735.15578613 411.67330078 736.11328125 412.21484375 C736.93610596 412.68011475 737.75893066 413.14538574 738.60668945 413.62475586 C739.39648193 414.07858643 740.18627441 414.53241699 741 415 C741.86196078 415.36167172 742.72392157 415.72334345 743.61200237 416.09597492 C746 418 746 418 746.61523914 421.4457655 C746.63630132 422.91024807 746.62941709 424.37528179 746.60127258 425.83964539 C746.60554471 426.64666848 746.60981683 427.45369156 746.61421841 428.2851699 C746.62247737 430.99885855 746.59491669 433.7110135 746.56762695 436.42456055 C746.56621711 438.3658647 746.56700722 440.30717152 746.56983948 442.24847412 C746.57127751 447.52728593 746.54182503 452.80553282 746.50696969 458.08421302 C746.47577062 463.59752036 746.47278055 469.11083981 746.46684265 474.6242218 C746.45128524 485.06841593 746.41023101 495.51234922 746.3600952 505.95642835 C746.30426083 517.84498944 746.27673009 529.7335628 746.25161803 541.6222223 C746.19931689 566.0816263 746.11133767 590.54079855 746 615 C744.11968989 614.06784188 742.24031827 613.13379057 740.36132812 612.19897461 C739.31464966 611.67903427 738.26797119 611.15909393 737.1895752 610.62339783 C732.20674745 608.0872884 727.3539859 605.33520553 722.5 602.5625 C721.49678711 601.99265381 720.49357422 601.42280762 719.45996094 600.83569336 C713.45981978 597.42200473 707.48833027 593.96356295 701.53515625 590.46875 C696.02662086 587.27736432 690.41587729 584.27398633 684.78515625 581.3046875 C676.25883234 576.80128106 667.8519256 572.11350013 659.46923828 567.34814453 C650.77023659 562.41209128 642.01041687 557.59160382 633.24264526 552.77935791 C625.2891235 548.41046888 617.3726779 543.99442007 609.62353516 539.26879883 C605.92904525 537.03861984 602.16308102 535.06788386 598.2890625 533.1640625 C591.99805221 530.05419838 585.96972415 526.58102224 579.9375 523 C572.36403475 518.52143695 564.74462736 514.1757182 557 510 C546.49328783 504.2722207 536.03184453 498.46987323 525.625 492.5625 C518.12103483 488.30333987 510.58486496 484.11334107 503 480 C488.29187046 472.02005738 473.65309626 463.88293772 459.3046875 455.26953125 C456.92871317 453.96073183 454.53743791 452.95266797 452 452 C452 451.34 452 450.68 452 450 C451.27216309 449.88624023 450.54432617 449.77248047 449.79443359 449.65527344 C446.8934964 448.97502572 444.86194648 448.0009689 442.2890625 446.515625 C441.38534912 445.99895264 440.48163574 445.48228027 439.55053711 444.94995117 C438.58510986 444.38896729 437.61968262 443.8279834 436.625 443.25 C434.55610726 442.06359685 432.48709332 440.87740504 430.41796875 439.69140625 C428.82734619 438.77512451 428.82734619 438.77512451 427.20458984 437.84033203 C422.1318533 434.92716061 417.03379134 432.05919284 411.9375 429.1875 C404.71885895 425.11136838 397.51102187 421.01771447 390.328125 416.87890625 C382.45230035 412.43257802 374.47287526 408.17452723 366.50170898 403.90234375 C357.55409162 399.10391617 348.62739379 394.29339376 339.83984375 389.20703125 C334.25613096 385.98183328 328.62431417 382.84112614 323 379.6875 C321.91195068 379.07583984 320.82390137 378.46417969 319.70288086 377.83398438 C318.66655518 377.25326172 317.63022949 376.67253906 316.5625 376.07421875 C315.63566406 375.55432373 314.70882813 375.03442871 313.75390625 374.4987793 C310.86852402 372.92844583 307.94610915 371.45271601 305 370 C305 369.34 305 368.68 305 368 C303.91259521 367.83153564 303.91259521 367.83153564 302.80322266 367.65966797 C299.85479018 366.96582852 297.7681126 365.95135425 295.1484375 364.4453125 C294.22385742 363.9181665 293.29927734 363.39102051 292.34667969 362.84790039 C290.87569824 361.9950647 290.87569824 361.9950647 289.375 361.125 C288.35825195 360.54290771 287.34150391 359.96081543 286.29394531 359.36108398 C283.19129297 357.58202023 280.09470236 355.79285159 277 354 C276.09088867 353.47390137 275.18177734 352.94780273 274.24511719 352.40576172 C270.95273465 350.49954776 267.66123705 348.59182565 264.37158203 346.6809082 C258.63400689 343.35213069 252.85462415 340.11913024 247 337 C246.41766602 336.6896582 245.83533203 336.37931641 245.23535156 336.05957031 C244.60338867 335.72280273 243.97142578 335.38603516 243.3203125 335.0390625 C242.66772461 334.69125732 242.01513672 334.34345215 241.34277344 333.98510742 C240.08365791 333.31477681 238.82394777 332.64556114 237.56347656 331.9777832 C232.6735017 329.38140129 227.83504175 326.69702404 223 324 C221.58225628 323.21313609 220.16429102 322.42667117 218.74609375 321.640625 C210.99357041 317.34011142 203.2487427 313.02680446 195.52636719 308.67236328 C191.39258745 306.34246946 187.25308898 304.02312462 183.109375 301.7109375 C181.52104858 300.82390137 181.52104858 300.82390137 179.90063477 299.91894531 C177.84970278 298.77387668 175.79816862 297.62988548 173.74584961 296.48730469 C167.15427133 292.80512384 160.60892521 289.04872307 154.07739258 285.26123047 C153.20168861 284.75381821 152.32598465 284.24640594 151.4237442 283.72361755 C149.28230798 282.48273586 147.14106469 281.2415226 145 280 C144.7163536 331.57365401 144.44586275 383.14735808 144.24821472 434.72142029 C144.24528636 435.48453164 144.24235799 436.24764298 144.23934089 437.03387892 C144.17578408 453.61768818 144.11467867 470.20150562 144.05609911 486.78533319 C144.02735746 494.91784422 143.99807402 503.05035326 143.96850586 511.18286133 C143.96557267 511.99215075 143.96263947 512.80144018 143.9596174 513.63525353 C143.86426174 539.87450086 143.73311899 566.11342127 143.58344922 592.35241029 C143.42985385 619.31270433 143.31229955 646.27292044 143.24019901 673.23356148 C143.23000235 677.04011255 143.21939298 680.84666236 143.20853233 684.65321159 C143.20534513 685.77700499 143.20534513 685.77700499 143.20209353 686.92350129 C143.166805 698.99161782 143.09343956 711.05921798 143.00589028 723.12705605 C142.91871871 735.25456068 142.87152918 747.38169611 142.86531506 759.5095172 C142.86083487 766.08284796 142.83708183 772.65508739 142.76611519 779.22808838 C142.70157294 785.24232437 142.68752492 791.25445643 142.71417996 797.26896011 C142.71482738 799.44815396 142.69670467 801.62744816 142.65823982 803.80630261 C141.99327388 815.01080678 141.99327388 815.01080678 146.34648645 824.76177394 C149.1902423 826.61562155 151.82566471 827.82168461 155 829 C156.80101041 829.9746006 158.59091431 830.97032561 160.36328125 831.99609375 C162.24007894 833.00134247 164.11909048 834.00246607 166 835 C168.16037577 836.15714234 170.32052317 837.31471111 172.48046875 838.47265625 C175.84963363 840.27650988 179.21925276 842.07942387 182.59179688 843.87695312 C187.93168547 846.73973544 193.16473513 849.66220317 198.2668457 852.92944336 C200.91777179 854.56690088 203.69351375 855.90125175 206.5 857.25 C213.81010058 860.82643636 220.87091598 864.79275575 227.93701172 868.82519531 C231.42937513 870.81398262 234.93392447 872.78105533 238.4375 874.75 C239.06317871 875.10239746 239.68885742 875.45479492 240.33349609 875.81787109 C247.67360861 879.94995343 255.04020396 884.02980521 262.44458008 888.0456543 C271.28342094 892.84144399 280.0713197 897.71590806 288.8125 902.6875 C295.32611886 906.39096068 301.85727595 910.03314753 308.5 913.5 C321.39637546 920.23340815 334.05287569 927.44950108 346.5625 934.875 C351.11833621 937.55722392 355.78991848 939.92128728 360.53417969 942.2512207 C367.00560067 945.45280661 373.25200926 949.0249085 379.52392578 952.59716797 C382.39386004 954.22314334 385.27244292 955.83314994 388.15234375 957.44140625 C389.2405542 958.04911865 390.32876465 958.65683105 391.44995117 959.28295898 C393.58913527 960.47702157 395.72860343 961.67057544 397.8684082 962.86352539 C404.07641931 966.3335986 410.23714937 969.8724931 416.36010742 973.49072266 C418.72570407 974.84317974 421.10505946 976.07517727 423.5625 977.25 C429.53678393 980.15980496 435.22199745 983.56262042 440.95898438 986.90771484 C449.27956386 991.75700119 457.65522736 996.41971009 466.3203125 1000.62890625 C470.27087449 1002.65025794 474.12877131 1004.83136803 478 1007 C478.93779297 1007.52360107 479.87558594 1008.04720215 480.84179688 1008.58666992 C483.95804337 1010.32680983 487.07299425 1012.06924652 490.1875 1013.8125 C491.29303223 1014.43125 492.39856445 1015.05 493.53759766 1015.6875 C499.33119787 1018.93348127 505.11658692 1022.19199318 510.875 1025.5 C517.58930131 1029.35072931 524.36061469 1033.0805678 531.20703125 1036.69140625 C539.83698856 1041.24367222 548.34929916 1045.98325571 556.82519531 1050.81665039 C566.49135141 1056.31746776 576.24758762 1061.65406939 586 1067 C586.17929547 1055.87517723 586.3445275 1044.75017957 586.5 1033.625 C586.51187725 1032.77561607 586.5237545 1031.92623215 586.53599167 1031.05110931 C586.9601756 1000.40858368 587.08867577 969.7702791 587.0625 939.125 C587.06164398 938.11556587 587.06078796 937.10613174 587.05990601 936.0661087 C587.04863874 923.71072064 587.02874977 911.35535941 587 899 C586.33762833 898.62648407 585.67525665 898.25296814 584.99281311 897.86813354 C581.96488016 896.16015871 578.93751401 894.45118163 575.91015625 892.7421875 C574.86815063 892.1546167 573.82614502 891.5670459 572.75256348 890.96166992 C567.61858796 888.06255555 562.49980999 885.14758819 557.4375 882.125 C552.88166379 879.44277608 548.21008152 877.07871272 543.46582031 874.7487793 C536.99151675 871.5457673 530.74208899 867.97214846 524.46728516 864.3984375 C519.44978456 861.55455828 514.40981131 858.75057723 509.375 855.9375 C501.37562254 851.4662218 493.39741773 846.96450238 485.4765625 842.35546875 C482.98406386 840.89575639 482.98406386 840.89575639 480 840 C480 839.34 480 838.68 480 838 C479.12778809 837.7306665 478.25557617 837.46133301 477.35693359 837.18383789 C474.1237872 836.04365412 471.29859183 834.69169331 468.2890625 833.05859375 C467.2165625 832.47916016 466.1440625 831.89972656 465.0390625 831.30273438 C463.91242188 830.68720703 462.78578125 830.07167969 461.625 829.4375 C460.45326377 828.80117669 459.28138783 828.16511059 458.109375 827.52929688 C446.73514346 821.34186691 435.40937239 815.10067844 424.3359375 808.38671875 C418.92075373 805.17201936 413.34680767 802.23740768 407.77734375 799.30078125 C399.87538728 795.12665806 392.07905276 790.7966049 384.3125 786.375 C376.64655699 782.01227835 368.98371049 777.7600701 361 774 C361 773.34 361 772.68 361 772 C360.27071289 771.88551514 359.54142578 771.77103027 358.79003906 771.65307617 C355.91276468 770.97958046 353.90883543 770.02582621 351.359375 768.55078125 C350.46508789 768.03870117 349.57080078 767.52662109 348.64941406 766.99902344 C347.69260742 766.4424707 346.73580078 765.88591797 345.75 765.3125 C343.69823107 764.13617019 341.64613537 762.9604102 339.59375 761.78515625 C338.52253906 761.16914551 337.45132812 760.55313477 336.34765625 759.91845703 C330.66676136 756.66288001 324.95959721 753.454884 319.25 750.25 C318.17331055 749.64196533 317.09662109 749.03393066 315.98730469 748.4074707 C314.98602539 747.84503662 313.98474609 747.28260254 312.953125 746.703125 C311.62522949 745.95530762 311.62522949 745.95530762 310.27050781 745.19238281 C307.9388783 743.89011636 307.9388783 743.89011636 305 743 C305 742.34 305 741.68 305 741 C304.29875 740.9175 303.5975 740.835 302.875 740.75 C296.20942638 739.01115471 296.20942638 739.01115471 294 736 C293.08224784 731.23928242 293.28261772 726.46374883 293.37890625 721.63671875 C293.38729846 720.10642676 293.39303138 718.57611829 293.39634705 717.04580688 C293.41320046 712.81724488 293.46769496 708.58986212 293.52810669 704.36172867 C293.58599467 699.86068797 293.60942431 695.35946575 293.63671875 690.8581543 C293.69036307 682.81110615 293.76693316 674.76450344 293.85595703 666.71777344 C293.96340889 656.94770539 294.05121164 647.17760945 294.12451172 637.40722656 C294.12952332 636.73945784 294.13453492 636.07168913 294.13969839 635.38368499 C294.16524018 631.96788316 294.19049939 628.5520793 294.21562004 625.13627434 C294.26599717 618.29437107 294.31809437 611.45248101 294.37084961 604.6105957 C294.37604665 603.93636727 294.3812437 603.26213885 294.38659823 602.56747925 C294.5634816 579.71141302 294.780841 556.85569439 295 534 C298.05142402 535.20614223 300.99381932 536.44596608 303.890625 537.98828125 C304.60089844 538.36533203 305.31117188 538.74238281 306.04296875 539.13085938 C306.77128906 539.52080078 307.49960938 539.91074219 308.25 540.3125 C308.96285156 540.69083984 309.67570312 541.06917969 310.41015625 541.45898438 C318.90485789 545.98183903 327.27710432 550.71287532 335.625 555.5 C343.61925477 560.07259776 351.61669751 564.63954387 359.625 569.1875 C360.6145166 569.75210938 361.6040332 570.31671875 362.62353516 570.8984375 C364.00484619 571.68154297 364.00484619 571.68154297 365.4140625 572.48046875 C366.2282666 572.94348389 367.0424707 573.40649902 367.88134766 573.88354492 C370.0876139 575.11948878 370.0876139 575.11948878 373 576 C373 576.66 373 577.32 373 578 C373.93199219 578.20625 374.86398437 578.4125 375.82421875 578.625 C381.26329351 580.18564749 385.95325386 583.16789922 390.8125 586 C392.87467523 587.1841595 394.9371788 588.36774738 397 589.55078125 C398.52560547 590.42984131 398.52560547 590.42984131 400.08203125 591.32666016 C404.13761075 593.65237484 408.22109881 595.92557228 412.3125 598.1875 C413.75782552 598.98825775 415.20313809 599.78903888 416.6484375 600.58984375 C417.35838867 600.98284668 418.06833984 601.37584961 418.79980469 601.78076172 C421.11010107 603.06101251 423.41855758 604.34452938 425.7265625 605.62890625 C426.90931763 606.28693237 426.90931763 606.28693237 428.1159668 606.95825195 C429.5941427 607.78073893 431.07218476 608.60346653 432.55004883 609.42651367 C436.45682265 611.59888808 440.37398418 613.75072917 444.30078125 615.88671875 C450.14167716 619.06862018 455.94890172 622.30872185 461.75 625.5625 C462.82403076 626.16457275 463.89806152 626.76664551 465.00463867 627.38696289 C494.88684757 644.14908622 494.88684757 644.14908622 504.75 649.9375 C511.30086195 653.78154955 517.95067385 657.42514797 524.6953125 660.91796875 C534.04048919 665.77610298 543.14395242 670.94972842 552.16137695 676.39477539 C557.2264565 679.43625219 562.33348698 682.2310066 567.6394043 684.82910156 C571.22013934 686.60521132 574.7023371 688.54460917 578.1875 690.5 C578.94450195 690.9223291 579.70150391 691.3446582 580.48144531 691.77978516 C585.78427556 694.74350896 591.06996361 697.73720289 596.35449219 700.73339844 C597.31000977 701.27512695 598.26552734 701.81685547 599.25 702.375 C600.21454102 702.92188477 601.17908203 703.46876953 602.17285156 704.03222656 C609.81374205 708.35385941 617.50670933 712.57360625 625.22167969 716.76123047 C630.50595569 719.63171313 635.76754107 722.53617375 641 725.5 C647.29745784 729.06684618 653.64149643 732.54324391 660 736 C670.82308463 741.8879056 681.5722653 747.89163187 692.265625 754.01171875 C693.184646 754.53765625 694.10366699 755.06359375 695.05053711 755.60546875 C696.82815301 756.62367356 698.6050661 757.64310686 700.38110352 758.6640625 C711.71260466 765.16247753 723.24216239 771.30270673 734.7421875 777.49609375 C735.76570313 778.04910156 736.78921875 778.60210938 737.84375 779.171875 C738.76349609 779.6678418 739.68324219 780.16380859 740.63085938 780.67480469 C743 782 743 782 746 784 C746.2973389 787.04835696 746.39621154 789.89380708 746.36914349 792.94497108 C746.37260502 793.88770292 746.37606655 794.83043475 746.37963298 795.80173421 C746.38764565 798.99677242 746.37405562 802.19136736 746.36076355 805.38638306 C746.36207037 807.68562406 746.36469452 809.98486463 746.36853105 812.2841028 C746.37527214 818.63031727 746.36319372 824.97638124 746.34819686 831.32257652 C746.33515411 837.45474637 746.33907492 843.58691704 746.34124239 849.71909653 C746.34518928 862.26794775 746.33514025 874.81675168 746.31719017 887.36558914 C746.29945576 899.79543923 746.28789571 912.22526964 746.28463173 924.65513229 C746.28442551 925.42718997 746.28421929 926.19924765 746.28400682 926.99470101 C746.28299186 930.91538809 746.2820877 934.83607519 746.2812262 938.75676231 C746.27492035 966.54683934 746.25469545 994.33689061 746.22631836 1022.12695312 C746.19877746 1049.12923037 746.17752055 1076.13150059 746.16479492 1103.13378906 C746.16440034 1103.96571515 746.16400576 1104.79764124 746.16359923 1105.65477722 C746.15964376 1114.00911168 746.15581631 1122.3634462 746.15208265 1130.71778077 C746.14447345 1147.73742185 746.13600969 1164.75706247 746.12702942 1181.77670288 C746.12661755 1182.55928563 746.12620568 1183.34186838 746.12578133 1184.14816576 C746.09816653 1236.43212136 746.05056718 1288.71606217 746 1341 C741.99796658 1340.28940518 739.42730265 1339.21099675 736 1337 C727.4738929 1332.00780995 718.88929491 1327.32080279 710 1323 C708.6657754 1322.33511885 707.33208021 1321.66916705 706 1321 C706 1320.34 706 1319.68 706 1319 C704.88625 1318.814375 704.88625 1318.814375 703.75 1318.625 C701.19858515 1318.04513299 699.2732427 1317.26291261 697 1316 C697 1315.34 697 1314.68 697 1314 C696.27039062 1313.89042969 695.54078125 1313.78085938 694.7890625 1313.66796875 C691.83235175 1312.95984895 689.92930254 1311.9399068 687.375 1310.3125 C676.94061759 1303.85238972 665.99116795 1298.43352594 655 1293 C655 1292.34 655 1291.68 655 1291 C653.78957031 1290.65582031 653.78957031 1290.65582031 652.5546875 1290.3046875 C648.12421783 1288.67855907 644.21207836 1286.46534704 640.125 1284.125 C638.58690242 1283.25090407 637.04784579 1282.37849346 635.5078125 1281.5078125 C634.76176758 1281.08532227 634.01572266 1280.66283203 633.24707031 1280.22753906 C631.02525179 1279.01379465 628.77333942 1277.90204056 626.4921875 1276.8046875 C623 1275 623 1275 622 1273 C619.66836622 1272.32741333 617.3347961 1271.66152556 615 1271 C612.0625 1269.5 612.0625 1269.5 610 1268 C610 1267.34 610 1266.68 610 1266 C608.02 1265.67 606.04 1265.34 604 1265 C604 1264.34 604 1263.68 604 1263 C603.4117041 1262.87036865 602.8234082 1262.7407373 602.21728516 1262.60717773 C598.68455397 1261.63978041 595.58155149 1259.7942498 592.375 1258.0625 C591.63660889 1257.66788574 590.89821777 1257.27327148 590.13745117 1256.86669922 C583.74224991 1253.43466841 577.39434831 1249.91699198 571.06591797 1246.36352539 C567.09109655 1244.13579352 563.09650681 1241.99986947 559 1240 C559 1239.34 559 1238.68 559 1238 C557.90171875 1237.82597656 557.90171875 1237.82597656 556.78125 1237.6484375 C553.96529662 1236.99190904 551.98920935 1236.07119557 549.5 1234.625 C548.7678125 1234.20476562 548.035625 1233.78453125 547.28125 1233.3515625 C545.74007483 1232.43846899 544.20501223 1231.51499065 542.67578125 1230.58203125 C539.39765162 1228.64386702 536.05070417 1226.8469711 532.6875 1225.0625 C532.02613037 1224.71058594 531.36476074 1224.35867188 530.68334961 1223.99609375 C526.15559048 1221.59404052 521.60326836 1219.25466205 517 1217 C517 1216.34 517 1215.68 517 1215 C515.88625 1214.814375 515.88625 1214.814375 514.75 1214.625 C512.19858515 1214.04513299 510.2732427 1213.26291261 508 1212 C508 1211.34 508 1210.68 508 1210 C506.89531372 1209.82452637 506.89531372 1209.82452637 505.76831055 1209.64550781 C502.99276411 1208.99831275 501.13729218 1208.13030883 498.70703125 1206.671875 C497.91643311 1206.20394531 497.12583496 1205.73601562 496.3112793 1205.25390625 C495.48668213 1204.75761719 494.66208496 1204.26132813 493.8125 1203.75 C487.31501837 1199.90987792 480.82693305 1196.22950725 474 1193 C472.79019788 1192.39877988 471.58166438 1191.7949931 470.375 1191.1875 C469.199375 1190.5996875 469.199375 1190.5996875 468 1190 C468 1189.34 468 1188.68 468 1188 C466.9275 1187.71125 465.855 1187.4225 464.75 1187.125 C461.90599636 1186.27179891 459.56491017 1185.4363497 457 1184 C457 1183.34 457 1182.68 457 1182 C455.89531372 1181.82452637 455.89531372 1181.82452637 454.76831055 1181.64550781 C451.99276411 1180.99831275 450.13729218 1180.13030883 447.70703125 1178.671875 C446.91707764 1178.20434814 446.12712402 1177.73682129 445.31323242 1177.25512695 C444.07536987 1176.51008911 444.07536987 1176.51008911 442.8125 1175.75 C437.10351011 1172.37457252 431.42536579 1169.10980132 425.4453125 1166.234375 C421.12679997 1164.05442299 416.96762575 1161.58788288 412.78515625 1159.16015625 C409.81974253 1157.45023574 406.82143504 1155.80783755 403.8125 1154.17578125 C399.83787058 1152.01655115 395.89232012 1149.81417798 391.96484375 1147.5703125 C390.47500977 1146.71953125 390.47500977 1146.71953125 388.95507812 1145.8515625 C386.90676955 1144.6795853 384.85994197 1143.50501665 382.81445312 1142.328125 C381.83283203 1141.76867188 380.85121094 1141.20921875 379.83984375 1140.6328125 C378.51521118 1139.87315186 378.51521118 1139.87315186 377.16381836 1139.09814453 C375.10717614 1137.84914726 375.10717614 1137.84914726 373 1138 C373 1137.34 373 1136.68 373 1136 C372.42765625 1135.87753906 371.8553125 1135.75507813 371.265625 1135.62890625 C368.90046809 1134.97237132 366.92793203 1134.06276488 364.75 1132.9375 C364.04359375 1132.57527344 363.3371875 1132.21304688 362.609375 1131.83984375 C361.81273437 1131.42412109 361.81273437 1131.42412109 361 1131 C361 1130.34 361 1129.68 361 1129 C359.02 1128.67 357.04 1128.34 355 1128 C355 1127.34 355 1126.68 355 1126 C354.45859375 1125.896875 353.9171875 1125.79375 353.359375 1125.6875 C350.39859592 1124.82475643 347.95559541 1123.48327058 345.25 1122 C344.10144531 1121.37222656 342.95289063 1120.74445313 341.76953125 1120.09765625 C337.13087758 1117.5271454 332.52234617 1114.90322103 327.90917969 1112.28735352 C322.03966322 1108.97914551 316.06797398 1105.93055561 310 1103 C310 1102.34 310 1101.68 310 1101 C309.29101562 1100.90074219 308.58203125 1100.80148437 307.8515625 1100.69921875 C304.56676552 1099.89376853 302.259252 1098.57337083 299.375 1096.8125 C291.74218786 1092.23469272 283.99798291 1087.91012498 276 1084 C274.54113365 1083.27190034 273.08282414 1082.54268417 271.625 1081.8125 C270.93664062 1081.46832031 270.24828125 1081.12414063 269.5390625 1080.76953125 C268.77722656 1080.38861328 268.77722656 1080.38861328 268 1080 C268 1079.34 268 1078.68 268 1078 C267.2575 1077.87625 266.515 1077.7525 265.75 1077.625 C263.19858515 1077.04513299 261.2732427 1076.26291261 259 1075 C259 1074.34 259 1073.68 259 1073 C258.26426758 1072.88374268 257.52853516 1072.76748535 256.77050781 1072.64770508 C253.97673056 1071.99455994 252.11503205 1071.11161874 249.671875 1069.63671875 C248.87136719 1069.16169922 248.07085938 1068.68667969 247.24609375 1068.19726562 C246.42238281 1067.69904297 245.59867188 1067.20082031 244.75 1066.6875 C238.64783284 1063.01354768 232.58440161 1059.73361418 226 1057 C226 1056.34 226 1055.68 226 1055 C225.01 1054.773125 224.02 1054.54625 223 1054.3125 C219.29442811 1053.25270644 216.44470169 1051.53562096 213.2421875 1049.4296875 C207.85356161 1045.9937344 202.1441912 1042.99591312 196.375 1040.25 C194 1039 194 1039 193 1037 C191.00953569 1036.30538049 189.00739455 1035.64405867 187 1035 C184.85784927 1033.9940752 182.7322837 1032.95205611 180.625 1031.875 C179.03558594 1031.06675781 179.03558594 1031.06675781 177.4140625 1030.2421875 C176.21910156 1029.62730469 176.21910156 1029.62730469 175 1029 C175 1028.34 175 1027.68 175 1027 C174.4117041 1026.87036865 173.8234082 1026.7407373 173.21728516 1026.60717773 C169.68458096 1025.63978781 166.58147653 1023.79434027 163.375 1022.0625 C162.62500732 1021.66135986 161.87501465 1021.26021973 161.10229492 1020.84692383 C155.07356286 1017.60974729 149.08741624 1014.29692571 143.11401367 1010.95898438 C135.88901889 1006.92352813 128.62178187 1002.96695933 121.34692383 999.0222168 C117.17972835 996.75765955 113.04696775 994.47506205 109 992 C106.71244667 990.65883398 104.42171526 989.32521965 102.125 988 C101.53847656 987.65710937 100.95195313 987.31421875 100.34765625 986.9609375 C96.3352775 984.65051281 92.28584608 982.75379891 88 981 C88 980.34 88 979.68 88 979 C87.2575 978.87625 86.515 978.7525 85.75 978.625 C83.19858515 978.04513299 81.2732427 977.26291261 79 976 C79 975.34 79 974.68 79 974 C78.2575 973.87625 77.515 973.7525 76.75 973.625 C74.19858515 973.04513299 72.2732427 972.26291261 70 971 C70 970.34 70 969.68 70 969 C68.90751953 968.83757812 68.90751953 968.83757812 67.79296875 968.671875 C64.80796376 967.95380387 62.88728759 966.90126874 60.3125 965.25 C55.34967343 962.16579929 50.25439975 959.54594627 45 957 C43.79070462 956.39776127 42.58219769 955.79393264 41.375 955.1875 C40.59125 954.795625 39.8075 954.40375 39 954 C39 953.34 39 952.68 39 952 C38.113125 951.71125 37.22625 951.4225 36.3125 951.125 C33.49617576 950.16851252 30.74916844 949.13201054 28 948 C28 947.34 28 946.68 28 946 C27.26789307 945.88519287 26.53578613 945.77038574 25.78149414 945.65209961 C22.93619193 944.98504069 20.99697839 944.05437712 18.49609375 942.56640625 C17.67302734 942.08236328 16.84996094 941.59832031 16.00195312 941.09960938 C15.15568359 940.59236328 14.30941406 940.08511719 13.4375 939.5625 C11.74925335 938.56286343 10.06047027 937.56413215 8.37109375 936.56640625 C7.62786865 936.12240479 6.88464355 935.67840332 6.11889648 935.22094727 C4.12176807 934.07016501 2.06161523 933.03080762 0 932 C0 624.44 0 316.88 0 0 Z " fill="#4BB7C3" transform="translate(748,1038)"/>
<path d="M0 0 C2.02237052 0.95394836 4.0282696 1.94535351 6 3 C6 3.66 6 4.32 6 5 C6.99773437 5.11408203 6.99773437 5.11408203 8.015625 5.23046875 C12.02523877 6.26436131 15.20349957 8.21771265 18.75 10.3125 C24.38546528 13.5696188 29.96868484 16.5228527 36 19 C36 19.66 36 20.32 36 21 C37.36125 21.2784375 37.36125 21.2784375 38.75 21.5625 C43.60251865 22.93492952 47.66136494 25.61952815 51.953125 28.203125 C55.35110926 30.20706443 58.82080671 31.95876019 62.36621094 33.68261719 C64.97916801 34.98958014 67.53615836 36.36930615 70.09375 37.78125 C75.82940217 40.92397444 81.62679667 43.93655021 87.4375 46.9375 C94.58703723 50.64468864 101.62527006 54.43596005 108.5390625 58.56640625 C111.66008607 60.38452633 114.86549551 61.97327845 118.109375 63.55859375 C127.62155563 68.30182977 136.96697197 73.40426352 146.28515625 78.515625 C151.50840194 81.37150034 156.75616115 84.18216609 162 87 C162 87.66 162 88.32 162 89 C161.40276123 89.31114746 160.80552246 89.62229492 160.19018555 89.94287109 C154.1541157 93.08816038 148.11984741 96.23688241 142.08691406 99.38818359 C140.15959916 100.39452122 138.23192537 101.40017217 136.30371094 102.40478516 C128.07063157 106.69505922 119.87879326 111.02754885 111.8125 115.625 C106.02921762 118.91951028 100.16532587 121.97517746 94.19702148 124.91943359 C80.93463162 131.47133292 67.95518522 138.55608839 54.99072266 145.67431641 C49.00353399 148.94725655 42.96208313 152.06165391 36.83520508 155.06298828 C31.79782918 157.55050196 26.8953173 160.24472633 22 163 C15.7829761 166.49753118 9.51090874 169.80644741 3.11376953 172.9609375 C-7.82034026 178.36183145 -18.63827672 184.00429025 -29.1875 190.125 C-34.50816007 193.20215594 -39.90400622 196.00900998 -45.41357422 198.72363281 C-55.36673724 203.6377862 -65.17192402 208.84165615 -75 214 C-75.77085937 214.40412109 -76.54171875 214.80824219 -77.3359375 215.22460938 C-81.88879301 217.61198217 -86.4372701 220.00755831 -90.98339844 222.40771484 C-93.25972803 223.6092543 -95.53644697 224.81004239 -97.81347656 226.01025391 C-118.55067629 236.91636462 -118.55067629 236.91636462 -139.125 248.125 C-145.25716707 251.53105865 -151.43753572 254.78012083 -157.72851562 257.88232422 C-172.11076677 264.98436251 -186.25114717 272.55418474 -200.30273438 280.28588867 C-208.6286234 284.8443571 -217.05969181 289.19024863 -225.50228882 293.52676392 C-234.20575454 297.99986665 -242.82553361 302.59936624 -251.37719727 307.35742188 C-256.97325133 310.46250303 -262.63133335 313.36698527 -268.375 316.19140625 C-272.8102783 318.3852671 -277.18519731 320.6931886 -281.5625 323 C-282.36953369 323.42466553 -283.17656738 323.84933105 -284.00805664 324.28686523 C-287.68660098 326.22839189 -291.35451516 328.18521271 -294.99609375 330.1953125 C-295.59413818 330.52402344 -296.19218262 330.85273437 -296.80834961 331.19140625 C-298.38582107 332.06198654 -299.95872313 332.94083227 -301.53125 333.8203125 C-304 335 -304 335 -307 335 C-307 335.66 -307 336.32 -307 337 C-308.33224609 337.65742187 -308.33224609 337.65742187 -309.69140625 338.328125 C-325.87049247 346.346347 -341.90670967 354.6357491 -357.64404297 363.49169922 C-363.00325366 366.49106798 -368.44894326 369.25958906 -373.96264648 371.96191406 C-379.0676059 374.48378547 -384.0390654 377.20673099 -389 380 C-395.12955785 383.44702234 -401.30777105 386.71812627 -407.6159668 389.82470703 C-423.91511866 397.86989045 -439.9235274 406.52092693 -456 415 C-453.12786246 418.06357773 -449.93938721 419.65568894 -446.1875 421.4375 C-439.49991015 424.69522009 -432.95262569 428.16050608 -426.4375 431.75 C-418.83957092 435.92981891 -411.20023486 440.01178373 -403.5 444 C-395.94995058 447.91233889 -388.45307516 451.90594457 -381 456 C-365.8404068 464.32178859 -350.52863243 472.38596087 -335 480 C-335 480.66 -335 481.32 -335 482 C-334.26765137 482.11754639 -333.53530273 482.23509277 -332.78076172 482.35620117 C-329.98279696 483.00398283 -328.00142405 483.89896284 -325.5078125 485.30078125 C-324.64994141 485.77708984 -323.79207031 486.25339844 -322.90820312 486.74414062 C-321.98974609 487.26169922 -321.07128906 487.77925781 -320.125 488.3125 C-318.13905531 489.41462653 -316.15204215 490.51482957 -314.1640625 491.61328125 C-313.14344727 492.17740723 -312.12283203 492.7415332 -311.07128906 493.32275391 C-306.25181078 495.95469475 -301.37789381 498.47846177 -296.5 501 C-288.03421913 505.38592956 -279.6464215 509.89584237 -271.29150391 514.48901367 C-263.56092 518.72606168 -255.74685422 522.79150749 -247.91772461 526.84277344 C-242.12390474 529.85366424 -236.47827473 533.001384 -230.87890625 536.359375 C-226.65177945 538.76832107 -222.28671154 540.87798401 -217.92016602 543.02050781 C-213.84684754 545.03358391 -209.90289158 547.1667496 -206 549.5 C-201.5646229 552.14451151 -197.06482204 554.52998224 -192.4375 556.8125 C-181.06647195 562.42222555 -169.71007045 568.13377418 -158.8125 574.625 C-154.62726981 577.10980151 -150.3679151 579.35785276 -146 581.5 C-138.49357765 585.1879661 -131.11610009 589.10281161 -123.75 593.0625 C-123.15500702 593.38222778 -122.56001404 593.70195557 -121.94699097 594.03137207 C-118.87191616 595.6843351 -115.79774922 597.33897755 -112.72412109 598.99462891 C-107.26393416 601.93558143 -101.79982661 604.86921942 -96.33416748 607.79998779 C-94.56979156 608.74609008 -92.80564723 609.69262423 -91.04150391 610.63916016 C-83.06870878 614.91034068 -75.06123757 619.11067697 -67.03662109 623.28344727 C-62.18972885 625.81576939 -57.41238528 628.43470539 -52.6875 631.1875 C-47.17564698 634.39130543 -41.55635671 637.25687589 -35.83666992 640.06225586 C-31.62690597 642.14222343 -27.54576256 644.36024856 -23.5 646.75 C-22.54867187 647.31074219 -21.59734375 647.87148437 -20.6171875 648.44921875 C-18.97231962 649.42386434 -17.33110878 650.40473587 -15.6953125 651.39453125 C-11.66110648 653.6755882 -11.66110648 653.6755882 -7.1796875 653.3203125 C-3.75313264 651.89749242 -0.68892784 650.20871994 2.5 648.3125 C8.47929353 644.80700991 14.56621324 641.65787194 20.7890625 638.609375 C24.35439741 636.82237016 27.80350457 634.88548772 31.23046875 632.84765625 C33 632 33 632 36 632 C36 631.34 36 630.68 36 630 C36.88816406 629.56171875 37.77632812 629.1234375 38.69140625 628.671875 C55.49920016 620.34209044 72.13553405 611.68220475 88.53027344 602.56518555 C100.34387367 596 100.34387367 596 104 596 C104 595.34 104 594.68 104 594 C104.88816406 593.56171875 105.77632812 593.1234375 106.69140625 592.671875 C122.87361795 584.65210404 138.91084406 576.35855763 154.65283203 567.50390625 C159.91693446 564.55875517 165.26120595 561.83425714 170.67700195 559.1809082 C176.58358471 556.26281393 182.35337994 553.11277115 188.125 549.9375 C194.03631824 546.68537355 199.9419977 543.47089082 206 540.5 C211.86403719 537.62015255 217.58819631 534.52278821 223.3125 531.375 C231.38549556 526.93817971 239.50802316 522.61236434 247.6875 518.375 C248.7384082 517.83053223 249.78931641 517.28606445 250.87207031 516.72509766 C252.9383189 515.65529439 255.00472145 514.58578844 257.07128906 513.51660156 C267.19060109 508.27642431 277.28537711 503.01693536 287.1875 497.375 C292.87341308 494.13781082 298.63233093 491.12559093 304.49975586 488.23217773 C317.5914891 481.76464313 330.62027176 475.12621143 343.15234375 467.625 C347.18688801 465.32270863 351.34791748 463.30533564 355.51733398 461.26074219 C361.10310958 458.49970743 366.55586294 455.52948261 372 452.5 C378.65735646 448.79654476 385.36281415 445.26972107 392.203125 441.91796875 C397.58056042 439.26177585 402.78124087 436.34189167 407.9855957 433.36376953 C413.38450231 430.29516872 418.8894669 427.49088334 424.46362305 424.75585938 C428.84371278 422.60227413 433.10809268 420.31658119 437.30078125 417.8125 C439 417 439 417 442 417 C442 416.34 442 415.68 442 415 C443.65 414.67 445.3 414.34 447 414 C447 413.34 447 412.68 447 412 C446.33097656 411.74605469 445.66195313 411.49210937 444.97265625 411.23046875 C441.38175384 409.74408996 437.91091344 408.05086547 434.4375 406.3125 C433.72787109 405.95800781 433.01824219 405.60351562 432.28710938 405.23828125 C428.1034525 403.12570429 424.02664415 400.90273005 420 398.5 C415.56462206 395.85548798 411.0648114 393.47003536 406.4375 391.1875 C393.23521017 384.67377694 380.26814013 377.75208662 367.43164062 370.54614258 C361.77752985 367.38851418 356.03268941 364.49425581 350.21875 361.640625 C347.10910322 360.05561086 344.12154198 358.35075893 341.125 356.5625 C334.68503812 352.73286933 328.03620125 349.32979529 321.25097656 346.15429688 C319 345 319 345 316.24121094 343.22070312 C310.5285966 339.65317921 310.5285966 339.65317921 304.04882812 339.61010742 C300.93460448 341.07336378 298.13338424 342.74786575 295.25 344.625 C293.14182671 345.88482561 291.03244967 347.14263906 288.921875 348.3984375 C287.90802734 349.02202148 286.89417969 349.64560547 285.84960938 350.28808594 C282.16419235 352.50211474 278.37848675 354.40305479 274.5 356.25 C269.22553802 358.82505127 264.09570705 361.58772733 259 364.5 C253.88052478 367.42373273 248.72550593 370.20549021 243.4375 372.8125 C228.27902937 380.28780663 213.36119999 388.21548406 198.55224609 396.35839844 C190.11556532 400.97816515 181.57423671 405.38590207 173.02392578 409.79077148 C166.00531242 413.41570935 159.04278282 417.12398228 152.125 420.9375 C143.03814554 425.94536646 133.84354897 430.7263871 124.61627197 435.46798706 C115.80317475 439.99945067 107.06853712 444.65225283 98.39111328 449.43920898 C90.16950302 453.95378753 81.83658253 458.2436987 73.49404907 462.52859497 C64.83815305 466.9771075 56.2669743 471.55273478 47.76342773 476.28710938 C42.25637721 479.34179698 36.68943201 482.23001585 31.03100586 484.99365234 C27.28145825 486.83158198 23.5911209 488.74859946 19.92578125 490.75 C19.0654126 491.21656006 18.20504395 491.68312012 17.31860352 492.16381836 C15.63780128 493.07906558 13.96223388 494.00400906 12.29272461 494.93969727 C11.53096924 495.35276123 10.76921387 495.7658252 9.984375 496.19140625 C9.31116211 496.56467041 8.63794922 496.93793457 7.94433594 497.32250977 C4.77245529 498.42772935 2.78719653 497.37174907 -0.15063477 495.984375 C-0.90658936 495.57703125 -1.66254395 495.1696875 -2.44140625 494.75 C-3.27220703 494.3065625 -4.10300781 493.863125 -4.95898438 493.40625 C-5.81814453 492.9421875 -6.67730469 492.478125 -7.5625 492 C-9.27103986 491.08129298 -10.98063211 490.16453971 -12.69140625 489.25 C-13.44623291 488.84265625 -14.20105957 488.4353125 -14.97875977 488.015625 C-17.11327439 486.88258624 -17.11327439 486.88258624 -20 486 C-20 485.34 -20 484.68 -20 484 C-20.71542969 483.89816406 -21.43085937 483.79632812 -22.16796875 483.69140625 C-25.36272443 482.91144521 -27.52141337 481.67057925 -30.3125 479.9375 C-34.99462597 477.12479429 -39.71845505 474.58430947 -44.625 472.1875 C-51.3041444 468.91344113 -57.79511796 465.36964692 -64.27441406 461.71826172 C-69.89309884 458.56971456 -75.60086429 455.66285447 -81.3828125 452.828125 C-85.35469235 450.86601635 -89.19324829 448.77276416 -93 446.5 C-97.36577236 443.89575241 -101.81250744 441.54862647 -106.375 439.3125 C-112.86705163 436.12585031 -119.22645235 432.73606021 -125.5625 429.25 C-136.94862661 422.98622119 -148.45676971 416.96832024 -160 411 C-160 409.68 -160 408.36 -160 407 C-152.23862207 402.54133608 -144.46821852 398.14563077 -136.4375 394.1875 C-121.32572323 386.73542722 -106.45428907 378.83297817 -91.69287109 370.71191406 C-83.40590737 366.1752444 -75.01557446 361.8480032 -66.61334229 357.5305481 C-58.76796126 353.49694723 -50.97210872 349.39130157 -43.25 345.125 C-34.02544668 340.03396299 -24.68520237 335.18561571 -15.3125 330.375 C-14.59516693 330.00674103 -13.87783386 329.63848206 -13.13876343 329.25906372 C-10.32710806 327.81583885 -7.51531816 326.37287653 -4.70332336 324.93031311 C7.46150088 318.68715182 19.52139723 312.29599605 31.44726562 305.60766602 C36.85408779 302.59273368 42.33566996 299.77633146 47.88696289 297.03857422 C58.82105625 291.63838827 69.63857209 285.99553838 80.1875 279.875 C85.60859091 276.73779461 91.114971 273.88796633 96.7277832 271.11816406 C104.18474683 267.43315412 111.53065527 263.54774298 118.87939453 259.65234375 C121.87485862 258.06626169 124.87227823 256.48394556 127.87026978 254.90264893 C148.0598459 244.25480959 148.0598459 244.25480959 168.125 233.375 C174.71969761 229.75004364 181.35405091 226.25571834 188.10473633 222.93066406 C195.67567365 219.19673442 203.12189532 215.22900055 210.58105469 211.27783203 C212.95962563 210.02132817 215.34224542 208.77290466 217.7265625 207.52734375 C225.97487054 203.2142515 234.17092362 198.82419702 242.3125 194.3125 C248.86368844 190.68272845 255.45554922 187.23989016 262.1796875 183.94140625 C267.19432283 181.43408859 272.08720307 178.69957549 277 176 C280.66438713 173.9957995 284.33122375 171.99615381 288 170 C289.12559326 169.38584229 289.12559326 169.38584229 290.27392578 168.75927734 C292.19541869 167.71912848 294.12594712 166.69925873 296.0625 165.6875 C297.10535156 165.13449219 298.14820313 164.58148437 299.22265625 164.01171875 C302.4740417 162.82731814 303.75557909 162.87984224 307 164 C309.07377478 164.99838229 311.11386611 166.06828175 313.125 167.1875 C314.27742188 167.82300781 315.42984375 168.45851563 316.6171875 169.11328125 C317.73351563 169.73589844 318.84984375 170.35851562 320 171 C321.74877833 171.96056085 323.49871231 172.91902186 325.25 173.875 C326.58804687 174.60589844 326.58804687 174.60589844 327.953125 175.3515625 C337.06268282 180.28006686 346.24266172 185.07866207 355.41259766 189.89355469 C358.57439511 191.55501875 361.73402512 193.22056075 364.89257812 194.88818359 C366.2238278 195.59051341 367.55576939 196.29153467 368.88867188 196.99072266 C370.47040761 197.82153788 372.04791666 198.66038698 373.625 199.5 C374.46289062 199.9434375 375.30078125 200.386875 376.1640625 200.84375 C378 202 378 202 379 204 C380.98879392 204.69938773 382.99114975 205.36049619 385 206 C391.31853053 208.90771783 397.44571066 212.19691545 403.50390625 215.609375 C420.07851788 224.84343093 436.96819138 233.64277714 454 242 C454 242.66 454 243.32 454 244 C454.7425 244.12375 455.485 244.2475 456.25 244.375 C458.80141485 244.95486701 460.7267573 245.73708739 463 247 C463 247.66 463 248.32 463 249 C463.87269531 249.27328125 464.74539063 249.5465625 465.64453125 249.828125 C473.83797354 252.68962987 481.4442684 257.1960737 489.03125 261.37109375 C498.38549586 266.50362075 507.8088656 271.46852369 517.390625 276.1640625 C521.32412504 278.13052653 525.16844679 280.2573294 529.02392578 282.37158203 C534.10455788 285.15155054 539.210739 287.88406148 544.3125 290.625 C552.8118631 295.19301203 561.29053898 299.79607176 569.75 304.4375 C576.8331724 308.32106308 583.95661067 312.06792088 591.22265625 315.59765625 C594 317 594 317 596.37915039 318.43383789 C598.78719008 319.87282947 601.21381923 321.18465521 603.7109375 322.4609375 C604.61448975 322.9259668 605.51804199 323.39099609 606.44897461 323.87011719 C607.41456299 324.36672852 608.38015137 324.86333984 609.375 325.375 C617.6653265 329.66266667 625.83653218 334.1149661 633.9375 338.75 C641.53473022 343.09172867 649.18151949 347.19660488 657.0390625 351.04296875 C667.30506243 356.07690625 677.42496031 361.44616626 687.3125 367.1875 C693.01016451 370.48789541 698.80483153 373.45085483 704.70703125 376.359375 C715.01541511 381.49522461 724.97353512 387.33888432 735 393 C736.35249198 397.08911317 736.56452981 399.94826895 735 404 C730.26878198 408.21647902 724.27607124 410.88549544 718.63769531 413.67919922 C714.02219486 415.99036707 709.51892571 418.50668188 705 421 C703.96866943 421.56759033 702.93733887 422.13518066 701.87475586 422.7199707 C698.53895469 424.55874891 695.20622277 426.40294066 691.875 428.25 C691.2869458 428.57604218 690.6988916 428.90208435 690.09301758 429.23800659 C682.14490421 433.64885415 674.25488334 438.14312935 666.44018555 442.78637695 C662.04058187 445.39862444 657.60097232 447.90872046 653.09375 450.33203125 C648.94352373 452.56959011 644.81668728 454.84890753 640.6875 457.125 C635.31773453 460.08358192 629.94414493 463.034443 624.5546875 465.95703125 C608.10350272 474.88030396 591.84875231 484.11059212 575.73999023 493.63769531 C571.28346504 496.26638002 566.78265654 498.78484263 562.22265625 501.23046875 C556.57985961 504.32887709 551.0112168 507.55928018 545.43457031 510.77490234 C541.01030986 513.31742097 536.57484689 515.73608899 532 518 C530.4062143 518.94084769 528.82240645 519.89884163 527.25 520.875 C523.89541271 522.91386593 520.52847257 524.78014702 517 526.5 C512.7443245 528.57804436 508.72544337 530.9187291 504.68896484 533.39160156 C502.1568737 534.90616634 499.59943657 536.33580765 497.00390625 537.73828125 C490.60912297 541.20906179 484.23825381 544.72177382 477.875 548.25 C477.2869458 548.57604218 476.6988916 548.90208435 476.09301758 549.23800659 C468.15382803 553.64390183 460.27200947 558.13214259 452.46655273 562.77099609 C430.19012662 576 430.19012662 576 426 576 C426 576.66 426 577.32 426 578 C425.40058594 578.28230469 424.80117187 578.56460938 424.18359375 578.85546875 C413.93745771 583.8255006 404.11824873 589.53994447 394.22607422 595.17089844 C387.55619376 598.95255005 380.85706434 602.68226047 374.16137695 606.41796875 C372.66997192 607.25134766 372.66997192 607.25134766 371.1484375 608.1015625 C370.27364746 608.58963379 369.39885742 609.07770508 368.49755859 609.58056641 C366.75997807 610.56808285 365.05046864 611.60597525 363.36572266 612.68115234 C361 614 361 614 358 614 C358 614.66 358 615.32 358 616 C356.96875 616.495 355.9375 616.99 354.875 617.5 C349.07016561 620.40241719 343.47846295 623.68372859 337.85986328 626.92675781 C330.02042705 631.45053855 322.16703881 635.94145255 314.2109375 640.2578125 C302.23113781 646.75780114 290.31570711 653.34601756 278.54003906 660.20996094 C273.48277668 663.15450652 268.39334795 666.02142074 263.234375 668.78515625 C261.12333823 669.93294023 259.06279596 671.14328919 257 672.375 C254 674 254 674 251 674 C251 674.66 251 675.32 251 676 C249.84951172 676.54914063 249.84951172 676.54914063 248.67578125 677.109375 C239.323451 681.67148732 230.32367747 686.75030703 221.3125 691.94921875 C216.48841052 694.73040058 211.62755284 697.43900515 206.75 700.125 C200.06991835 703.80987408 193.48120934 707.6304804 186.91894531 711.52075195 C182.22651882 714.29671713 177.49453296 716.97674502 172.6875 719.55078125 C170.3902509 720.78955947 168.1078789 722.04979853 165.828125 723.3203125 C162.57775299 725.12969073 159.31770617 726.91928114 156.046875 728.69140625 C145.66823155 734.31483986 135.35841746 740.03808467 125.12402344 745.92016602 C120.9386303 748.32458304 116.75007509 750.71098318 112.5 753 C106.16436887 756.41227722 99.93775994 760.01735625 93.69726562 763.59960938 C88.84567563 766.38283265 83.98008625 769.13638403 79.08642578 771.8449707 C75.96728042 773.57170563 72.85781086 775.31546662 69.75 777.0625 C68.75286987 777.62287964 68.75286987 777.62287964 67.7355957 778.19458008 C60.9546273 782.01289174 54.20480696 785.88528651 47.45288086 789.75463867 C42.11451676 792.80843689 36.74689883 795.79458362 31.33203125 798.7109375 C28.84994273 800.08294623 26.42480247 801.52928 24 803 C19.8671428 805.50417672 15.67259986 807.85108042 11.421875 810.1484375 C6.73062782 812.68685207 2.05203166 815.24800874 -2.625 817.8125 C-3.52718262 818.30516357 -4.42936523 818.79782715 -5.35888672 819.30541992 C-6.20209473 819.76795166 -7.04530273 820.2304834 -7.9140625 820.70703125 C-8.6767041 821.1244458 -9.4393457 821.54186035 -10.22509766 821.97192383 C-11.96222754 822.87640809 -11.96222754 822.87640809 -13 824 C-18.36491652 824.43286613 -21.33406153 823.69392024 -25.875 820.875 C-27.08188369 820.14473425 -28.29036003 819.41709726 -29.5 818.69140625 C-30.18964844 818.27391113 -30.87929687 817.85641602 -31.58984375 817.42626953 C-36.62321242 814.44764922 -41.76137019 811.65026313 -46.875 808.8125 C-53.11297046 805.35009284 -59.31021303 801.87627379 -65.33203125 798.0480957 C-67.52788219 796.66829651 -69.77922962 795.41638211 -72.0625 794.1875 C-72.98933594 793.68734375 -73.91617188 793.1871875 -74.87109375 792.671875 C-79.05589391 790.43580201 -83.24109445 788.20040043 -87.43383789 785.97924805 C-92.32470847 783.38228435 -97.16603652 780.70119391 -102 778 C-102.93457031 777.47833252 -103.86914062 776.95666504 -104.83203125 776.41918945 C-119.8567676 768.02722391 -134.86998195 759.6289677 -149.6875 750.875 C-155.11696859 747.66801551 -160.57328922 744.5435752 -166.12890625 741.55859375 C-170.41641935 739.23108664 -174.65935938 736.82529286 -178.90454102 734.42163086 C-186.232991 730.28150205 -193.6329675 726.2731503 -201.04296875 722.28125 C-211.8214573 716.46270011 -222.45422751 710.44225448 -233.00952148 704.22827148 C-240.75997022 699.68173602 -248.60631599 695.33909853 -256.51293945 691.07104492 C-262.37282413 687.90466437 -268.14770316 684.64171889 -273.85546875 681.20703125 C-276.07019404 679.87119034 -276.07019404 679.87119034 -279 679 C-279 678.34 -279 677.68 -279 677 C-280.27037109 676.62294922 -280.27037109 676.62294922 -281.56640625 676.23828125 C-285.26787035 674.90339602 -288.54949782 673.15457179 -291.9375 671.1875 C-293.35016706 670.38004499 -294.76293368 669.57276414 -296.17578125 668.765625 C-297.32554443 668.10530273 -297.32554443 668.10530273 -298.49853516 667.43164062 C-302.1997398 665.31336383 -305.91554988 663.22117649 -309.63012695 661.12646484 C-317.01636778 656.96097906 -324.39502077 652.78294663 -331.75 648.5625 C-336.47577788 645.85561052 -341.2341322 643.22134732 -346.0234375 640.62890625 C-350.33959676 638.26691358 -354.6222705 635.84620104 -358.90380859 633.42211914 C-366.25520664 629.2687391 -373.67814053 625.24720153 -381.11328125 621.24609375 C-391.6986373 615.53634341 -402.11731785 609.61476065 -412.43945312 603.44189453 C-417.86282446 600.21430333 -423.31992055 597.24392167 -429.015625 594.51953125 C-433.66752197 592.15096067 -438.1262474 589.46221844 -442.60083008 586.77661133 C-448.3153554 583.35560081 -454.14163217 580.16711357 -460 577 C-461.96267583 575.93048768 -463.92491374 574.86017134 -465.88671875 573.7890625 C-467.32241211 573.00595703 -467.32241211 573.00595703 -468.78710938 572.20703125 C-473.19140625 569.8046875 -477.59570312 567.40234375 -482 565 C-482 564.34 -482 563.68 -482 563 C-482.71462402 562.89582764 -483.42924805 562.79165527 -484.16552734 562.68432617 C-487.33094772 561.92009936 -489.55881733 560.71885632 -492.3515625 559.05078125 C-493.36863281 558.44943359 -494.38570312 557.84808594 -495.43359375 557.22851562 C-496.48675781 556.59623047 -497.53992188 555.96394531 -498.625 555.3125 C-506.34105161 550.72053187 -514.09039622 546.25048132 -522 542 C-523.82204626 541.01251484 -525.64365975 540.02423075 -527.46484375 539.03515625 C-528.36098389 538.54869629 -529.25712402 538.06223633 -530.18041992 537.56103516 C-537.9210248 533.35384196 -545.63054979 529.12517629 -553.20800781 524.62963867 C-555.83476363 523.09644568 -558.48312498 521.62240021 -561.15625 520.171875 C-562.5952063 519.38997803 -562.5952063 519.38997803 -564.06323242 518.59228516 C-565.03236572 518.06683105 -566.00149902 517.54137695 -567 517 C-581.7268498 509.00365187 -596.41667773 501.00120472 -610.75 492.3125 C-615.54170591 489.4092828 -620.355181 486.74152532 -625.40625 484.30859375 C-629.84035374 482.07150828 -634.1131081 479.54947302 -638.41015625 477.0625 C-641.78454795 475.1124508 -645.19104457 473.22314285 -648.6003418 471.33496094 C-652.8733419 468.95783564 -657.12168337 466.53710578 -661.375 464.125 C-670.05967424 459.20689904 -678.77082641 454.33863836 -687.5 449.5 C-702.82604069 441.00172084 -718.14007915 432.4785047 -733.24658203 423.59423828 C-735.84354055 422.09059055 -738.46032584 420.63845495 -741.09765625 419.20703125 C-742.05526855 418.6864917 -743.01288086 418.16595215 -743.99951172 417.62963867 C-745.48475342 416.82296753 -745.48475342 416.82296753 -747 416 C-748.9624568 414.93008583 -750.92469736 413.85977492 -752.88671875 412.7890625 C-753.84384766 412.26699219 -754.80097656 411.74492188 -755.78710938 411.20703125 C-762.39355469 407.60351562 -762.39355469 407.60351562 -769 404 C-768 401 -768 401 -765 399.2734375 C-763.67105656 398.63145716 -762.33732007 397.99934323 -761 397.375 C-759.52644788 396.66331026 -758.05381948 395.94970537 -756.58203125 395.234375 C-755.44048584 394.68233398 -755.44048584 394.68233398 -754.27587891 394.11914062 C-750.70581092 392.3635955 -747.19630086 390.49930475 -743.6875 388.625 C-742.25785992 387.86319225 -740.8281717 387.10147484 -739.3984375 386.33984375 C-738.6775293 385.95554199 -737.95662109 385.57124023 -737.21386719 385.17529297 C-734.97217752 383.98522966 -732.72541016 382.80538228 -730.4765625 381.62890625 C-721.8744663 377.12745089 -713.32233349 372.54880596 -704.8125 367.875 C-697.90876104 364.08713423 -690.97195824 360.41571245 -683.90771484 356.93701172 C-672.36750915 351.24486336 -661.04918215 345.10604279 -649.70288086 339.0390625 C-644.64660525 336.33769981 -639.57465689 333.66664481 -634.5 331 C-628.17638049 327.67678978 -621.86271409 324.33610581 -615.5625 320.96875 C-610.17060239 318.08767167 -604.76972627 315.22371845 -599.36181641 312.37280273 C-595.81624484 310.50155145 -592.28170483 308.61367187 -588.765625 306.6875 C-587.75145508 306.13545898 -587.75145508 306.13545898 -586.71679688 305.57226562 C-585.44427376 304.87850675 -584.17452934 304.17961602 -582.90820312 303.47460938 C-579.62385706 301.69020088 -576.71287628 300.50249453 -573 300 C-573 299.34 -573 298.68 -573 298 C-572.04222656 297.52691406 -571.08445312 297.05382812 -570.09765625 296.56640625 C-562.83142181 292.96328428 -555.60203473 289.30179235 -548.4375 285.5 C-547.73874756 285.12955566 -547.03999512 284.75911133 -546.32006836 284.37744141 C-542.7686267 282.48908386 -539.22829058 280.58219178 -535.69921875 278.65234375 C-535.01351807 278.27980469 -534.32781738 277.90726563 -533.62133789 277.5234375 C-532.32198011 276.81663263 -531.0254212 276.10464986 -529.73217773 275.38671875 C-526.92697168 273.86377001 -525.24688145 273 -522 273 C-522 272.34 -522 271.68 -522 271 C-519.73272667 269.82592979 -517.46165376 268.66060261 -515.1875 267.5 C-514.54490234 267.16613281 -513.90230469 266.83226562 -513.24023438 266.48828125 C-510.30452301 264.99760916 -508.33873483 264 -505 264 C-505 263.34 -505 262.68 -505 262 C-504.02804687 261.56171875 -503.05609375 261.1234375 -502.0546875 260.671875 C-493.69666364 256.84867727 -485.54778911 252.75286019 -477.5 248.3125 C-469.14760055 243.70695045 -460.75946674 239.18014631 -452.3125 234.75 C-450.69021484 233.89015503 -450.69021484 233.89015503 -449.03515625 233.01293945 C-448.0296875 232.48788818 -447.02421875 231.96283691 -445.98828125 231.421875 C-445.09665283 230.95362305 -444.20502441 230.48537109 -443.28637695 230.00292969 C-441 229 -441 229 -438 229 C-438 228.34 -438 227.68 -438 227 C-429.0992766 222.11724142 -420.11763109 217.53011618 -410.87573242 213.32250977 C-405.89086906 211.0190408 -401.233349 208.39190495 -396.55102539 205.52587891 C-392.33639308 203.00492456 -387.98476062 200.75753867 -383.625 198.5 C-382.705979 198.02079102 -381.78695801 197.54158203 -380.84008789 197.04785156 C-376.06341103 194.56359169 -371.26953161 192.12452544 -366.4375 189.75 C-362.60444441 187.85780049 -358.92279199 185.81200298 -355.25 183.625 C-350.07423533 180.5571343 -344.79162969 177.84065557 -339.3996582 175.18310547 C-333.40632369 172.2232437 -327.49041762 169.12976485 -321.58227539 166.00390625 C-314.07478152 162.03260015 -306.54304841 158.10864576 -299.00366211 154.19824219 C-293.89233405 151.53932129 -288.84744865 148.81320021 -283.87939453 145.89379883 C-282 145 -282 145 -279 145 C-279 144.34 -279 143.68 -279 143 C-277.94941406 142.48050781 -276.89882812 141.96101562 -275.81640625 141.42578125 C-274.39820121 140.72183 -272.98024888 140.0173695 -271.5625 139.3125 C-270.83200439 138.94962891 -270.10150879 138.58675781 -269.34887695 138.21289062 C-264.70691143 135.89319544 -260.15633889 133.47451281 -255.69921875 130.8125 C-254 130 -254 130 -251 130 C-250.67 129.34 -250.34 128.68 -250 128 C-248.07801205 126.89270545 -246.11181397 125.86126017 -244.125 124.875 C-242.52011719 124.06675781 -242.52011719 124.06675781 -240.8828125 123.2421875 C-238 122 -238 122 -235 122 C-235 121.34 -235 120.68 -235 120 C-233.59814453 119.30777344 -233.59814453 119.30777344 -232.16796875 118.6015625 C-212.72716327 108.97804732 -212.72716327 108.97804732 -193.8125 98.375 C-189.14857717 95.60826612 -184.39852329 93.07393811 -179.5625 90.625 C-178.88743408 90.27872559 -178.21236816 89.93245117 -177.5168457 89.57568359 C-174.03600538 87.8372241 -170.86802841 86.5216994 -167 86 C-167 85.34 -167 84.68 -167 84 C-165.18958266 83.09479133 -163.3787647 82.19037851 -161.56640625 81.2890625 C-159.67224152 80.33765556 -157.78524626 79.37194321 -155.90234375 78.3984375 C-154.31099609 77.58246094 -154.31099609 77.58246094 -152.6875 76.75 C-151.68074219 76.22921875 -150.67398438 75.7084375 -149.63671875 75.171875 C-147 74 -147 74 -144 74 C-144 73.34 -144 72.68 -144 72 C-142.58074219 71.30777344 -142.58074219 71.30777344 -141.1328125 70.6015625 C-133.64485056 66.91895827 -126.27107731 63.09555848 -119 59 C-112.60112873 55.39680557 -106.13576453 52.00363733 -99.54907227 48.7578125 C-94.91048201 46.46904589 -90.35635186 44.05996458 -85.828125 41.55859375 C-77.69963706 37.07894363 -69.51584222 32.72169611 -61.1875 28.625 C-55.73762754 25.92771251 -50.42472211 23.04296009 -45.125 20.0625 C-38.78371166 16.49762407 -32.39024365 13.10940882 -25.8527832 9.91845703 C-22.46456851 8.25855905 -19.1333251 6.54025218 -15.84375 4.69140625 C-15.16723389 4.3145166 -14.49071777 3.93762695 -13.79370117 3.54931641 C-12.50836004 2.82800482 -11.22936504 2.09522012 -9.95825195 1.34912109 C-6.22573316 -0.73542795 -4.07490572 -1.45133628 0 0 Z " fill="#9BD7E1" transform="translate(1517,622)"/>
</svg>
